<?xml version="1.0" standalone="no"?>
<!DOCTYPE svg PUBLIC "-//W3C//DTD SVG 20010904//EN"
 "http://www.w3.org/TR/2001/REC-SVG-20010904/DTD/svg10.dtd">
<svg version="1.0" xmlns="http://www.w3.org/2000/svg"
 width="3129.000000pt" height="1705.000000pt" viewBox="0 0 3129.000000 1705.000000"
 preserveAspectRatio="xMidYMid meet">

<g transform="translate(0.000000,1705.000000) scale(0.100000,-0.100000)"
fill="#a94541" stroke="none">
<path d="M17665 17036 c-239 -55 -422 -218 -500 -447 -25 -75 -29 -98 -29
-209 0 -111 4 -134 29 -209 91 -267 322 -442 605 -458 115 -7 224 17 340 73
94 46 230 178 277 269 106 204 110 418 11 625 -33 69 -56 100 -127 170 -93 92
-160 134 -276 170 -89 28 -246 35 -330 16z"/>
<path d="M14875 16423 c-690 -74 -1295 -376 -1771 -884 -370 -397 -621 -919
-705 -1469 -26 -176 -36 -476 -20 -646 63 -667 337 -1252 805 -1720 230 -230
441 -381 731 -524 376 -186 734 -275 1155 -287 745 -21 1456 256 1991 775 452
437 722 960 825 1597 24 155 30 527 10 700 -39 340 -127 634 -278 937 -303
605 -819 1080 -1450 1334 -194 78 -393 132 -625 170 -95 16 -570 28 -668 17z
m461 -764 c697 -69 1308 -496 1614 -1131 402 -833 176 -1840 -545 -2423 -399
-323 -889 -479 -1398 -444 -711 47 -1340 467 -1660 1106 -202 404 -262 853
-172 1298 121 603 529 1126 1090 1401 334 163 702 230 1071 193z"/>
<path d="M14799 9564 c-1207 -927 -2195 -1687 -2196 -1688 -1 -1 71 -96 160
-211 257 -333 496 -561 779 -741 124 -79 387 -210 521 -259 572 -209 1196
-230 1767 -58 594 178 1121 558 1474 1063 397 567 571 1287 476 1975 -56 401
-219 826 -445 1160 -62 92 -320 431 -334 440 -5 2 -996 -754 -2202 -1681z
m2099 438 c90 -224 130 -419 139 -667 28 -787 -396 -1507 -1097 -1864 -502
-256 -1106 -285 -1634 -80 -190 74 -435 218 -559 330 -41 37 -41 38 -22 53 11
8 713 547 1560 1199 1250 961 1542 1182 1551 1171 6 -8 34 -72 62 -142z"/>
<path d="M20065 4442 c-261 -79 -407 -311 -354 -564 19 -89 58 -158 128 -229
107 -107 228 -153 401 -153 173 0 294 46 401 153 104 105 146 218 137 372 -9
151 -72 263 -195 345 -100 68 -166 86 -323 90 -109 3 -147 0 -195 -14z"/>
<path d="M13990 3489 l0 -720 -82 72 c-190 164 -393 244 -685 271 -294 27
-607 -34 -861 -167 -267 -139 -468 -345 -605 -620 -190 -381 -218 -915 -70
-1339 147 -422 463 -736 882 -876 166 -56 260 -71 468 -77 209 -6 298 2 450
42 186 49 344 137 473 263 l70 69 0 -168 0 -169 415 0 415 0 0 2070 0 2070
-435 0 -435 0 0 -721z m-584 -1100 c223 -41 435 -211 530 -426 53 -118 69
-213 68 -398 -1 -201 -17 -275 -91 -425 -39 -79 -60 -109 -132 -180 -128 -126
-241 -184 -411 -211 -90 -14 -250 -6 -335 16 -252 66 -454 269 -525 527 -42
153 -44 390 -6 539 75 288 282 493 561 554 74 17 261 19 341 4z"/>
<path d="M21490 2140 l0 -2070 415 0 415 0 0 170 0 170 63 -63 c167 -168 392
-272 664 -308 129 -17 433 -6 550 20 522 115 908 457 1072 947 143 427 112
944 -80 1325 -193 386 -562 666 -992 754 -462 94 -910 -10 -1184 -274 l-53
-51 0 725 0 725 -435 0 -435 0 0 -2070z m1786 249 c259 -47 490 -263 563 -528
70 -251 38 -564 -76 -761 -46 -79 -178 -213 -255 -258 -126 -75 -279 -108
-448 -99 -125 8 -199 26 -294 74 -151 76 -257 184 -331 338 -62 129 -76 195
-82 375 -6 177 9 285 56 406 84 216 279 390 498 443 90 22 274 27 369 10z"/>
<path d="M2035 4043 c-933 -45 -1668 -561 -1930 -1357 -142 -429 -140 -919 5
-1341 250 -728 891 -1221 1725 -1326 144 -18 483 -16 635 5 440 59 830 197
1142 405 l98 65 0 798 0 798 -410 0 -410 0 0 -576 0 -575 -73 -34 c-104 -47
-245 -90 -362 -110 -137 -24 -395 -24 -529 -1 -524 93 -901 471 -991 990 -20
119 -20 364 1 487 56 329 234 611 494 785 228 151 451 214 761 214 245 0 412
-36 604 -131 115 -57 243 -146 340 -237 37 -34 71 -61 75 -60 4 2 117 104 251
228 134 124 262 241 283 261 l39 36 -29 38 c-45 59 -218 209 -324 280 -316
212 -683 328 -1122 355 -84 5 -166 9 -183 8 -16 -1 -57 -3 -90 -5z"/>
<path d="M15224 3963 c4 -10 383 -890 843 -1955 l836 -1938 446 0 447 0 754
1743 c414 958 795 1838 846 1955 l93 212 -451 -2 -451 -3 -601 -1392 c-330
-765 -603 -1389 -605 -1387 -3 2 -271 629 -596 1392 l-590 1387 -489 3 c-462
2 -488 1 -482 -15z"/>
<path d="M5715 3110 c-455 -52 -844 -246 -1095 -544 -163 -195 -264 -402 -322
-663 -20 -85 -22 -128 -22 -328 0 -200 3 -243 22 -331 67 -310 188 -532 406
-749 227 -226 480 -359 825 -432 118 -26 143 -27 386 -28 232 0 272 2 373 23
580 117 1010 472 1190 983 136 386 112 853 -63 1215 -216 447 -645 750 -1185
839 -116 19 -405 27 -515 15z m387 -725 c41 -8 114 -35 167 -61 209 -103 360
-316 400 -564 18 -107 13 -312 -9 -419 -47 -229 -194 -425 -392 -523 -99 -49
-173 -67 -298 -75 -233 -13 -415 49 -572 196 -125 117 -203 264 -234 442 -22
125 -15 340 15 454 73 281 285 491 556 550 83 18 277 18 367 0z"/>
<path d="M9370 3109 c-742 -74 -1307 -569 -1420 -1244 -48 -289 -30 -543 56
-805 180 -544 661 -924 1285 -1015 137 -19 429 -20 568 0 384 55 700 211 951
471 196 203 318 436 382 728 19 88 22 131 22 331 0 200 -2 243 -22 328 -90
405 -303 718 -637 939 -322 214 -751 310 -1185 267z m393 -725 c208 -46 390
-191 488 -389 68 -139 83 -212 83 -425 0 -159 -3 -196 -22 -264 -76 -273 -272
-474 -532 -543 -90 -24 -320 -24 -410 0 -274 73 -482 297 -542 584 -27 133
-22 388 12 503 80 276 288 476 555 535 85 19 280 18 368 -1z"/>
<path d="M26525 3110 c-394 -45 -710 -193 -971 -454 -214 -215 -337 -443 -406
-753 -19 -85 -22 -129 -23 -328 0 -205 3 -241 23 -333 69 -309 187 -529 396
-738 256 -255 599 -412 1016 -464 125 -15 440 -12 574 5 347 46 640 177 856
383 l83 80 -221 239 c-121 132 -226 244 -234 250 -10 8 -32 -4 -93 -54 -95
-77 -250 -156 -358 -183 -238 -60 -530 -44 -726 38 -160 68 -305 197 -379 340
-41 80 -75 176 -65 186 4 3 516 6 1139 6 l1132 0 7 137 c12 222 -7 403 -61
590 -161 557 -593 932 -1194 1037 -113 20 -383 28 -495 16z m430 -682 c252
-74 457 -302 500 -555 l7 -43 -741 0 c-408 0 -741 4 -741 8 0 5 9 43 20 86 58
230 236 421 459 496 94 31 162 39 296 35 88 -2 141 -10 200 -27z"/>
<path d="M29796 3109 c-669 -64 -1102 -395 -1144 -874 -23 -252 38 -469 170
-611 186 -198 406 -286 923 -369 446 -71 560 -98 635 -150 96 -67 106 -209 21
-294 -71 -71 -175 -106 -368 -121 -346 -29 -794 70 -1096 241 -39 22 -73 36
-77 32 -20 -22 -282 -605 -277 -616 8 -21 219 -122 350 -166 148 -51 325 -95
498 -123 183 -30 673 -33 841 -5 575 97 922 362 1004 768 13 64 15 112 11 209
-7 145 -30 239 -85 345 -66 127 -233 270 -394 337 -99 42 -376 109 -623 152
-530 92 -633 126 -686 226 -27 49 -25 134 4 185 74 130 276 193 587 181 286
-10 512 -66 751 -186 58 -30 58 -30 69 -9 17 31 280 592 280 596 0 3 -42 24
-94 49 -185 87 -427 153 -701 189 -146 20 -464 27 -599 14z"/>
<path d="M19810 1570 l0 -1500 435 0 435 0 0 1500 0 1500 -435 0 -435 0 0
-1500z"/>
</g>
</svg>
